<svg width="320" height="347" viewBox="0 0 320 347" fill="none" xmlns="http://www.w3.org/2000/svg">
<path d="M96.6328 11.3594H77.4434V6.28125H96.6328V11.3594ZM89.2598 27.7168H83.0586V16.5352H89.2598V27.7168ZM100.319 9.6748C100.287 11.9535 100.205 14.0286 100.075 15.9004C99.9613 17.7721 99.709 19.8311 99.3184 22.0771L93.166 21.54C93.6055 19.1963 93.8903 17.1292 94.0205 15.3389C94.1507 13.5485 94.224 11.6198 94.2402 9.55273V9.04004V6.28125H100.319V9.04004V9.6748ZM111.184 36.2861H104.787V3.00977H111.184V36.2861ZM116.579 21.8086H108.669V16.6084H116.579V21.8086ZM112.575 46.7354H81.3496V41.7061H112.575V46.7354ZM87.5996 43.293H81.3496V33.332H87.5996V43.293ZM74.8066 25.3242C80.2917 25.3079 85.264 25.2103 89.7236 25.0312C94.1833 24.8522 98.415 24.4779 102.419 23.9082L102.712 28.4004C98.6266 29.1491 94.3135 29.6536 89.7725 29.9141C85.2314 30.1582 80.4219 30.2803 75.3438 30.2803L74.8066 25.3242ZM133.62 9.43066C133.62 12.4417 133.164 15.2412 132.253 17.8291C131.358 20.417 129.991 22.6712 128.151 24.5918C126.312 26.4961 124.034 27.9202 121.315 28.8643L117.971 23.9814C120.347 23.1676 122.325 22.0202 123.903 20.5391C125.482 19.0417 126.646 17.3408 127.395 15.4365C128.16 13.5322 128.542 11.5303 128.542 9.43066V5.40234H133.62V9.43066ZM134.792 10.041C134.792 11.8965 135.158 13.6624 135.891 15.3389C136.639 16.999 137.771 18.4801 139.284 19.7822C140.814 21.068 142.71 22.069 144.973 22.7852L141.652 27.6191C139.064 26.7402 136.875 25.4382 135.085 23.7129C133.295 21.9876 131.96 19.9613 131.081 17.6338C130.202 15.29 129.763 12.7591 129.763 10.041V5.40234H134.792V10.041ZM153.859 29.4014H147.634V3.00977H153.859V29.4014ZM159.865 18.6348H152.102V13.4346H159.865V18.6348ZM139.284 30.3047C142.344 30.3047 144.997 30.6465 147.243 31.3301C149.506 31.9974 151.239 32.974 152.443 34.2598C153.664 35.5456 154.274 37.0837 154.274 38.874C154.274 40.6807 153.664 42.2269 152.443 43.5127C151.239 44.8148 149.514 45.7995 147.268 46.4668C145.021 47.1504 142.36 47.4922 139.284 47.4922C136.192 47.4922 133.498 47.1504 131.203 46.4668C128.908 45.7995 127.142 44.8148 125.905 43.5127C124.668 42.2269 124.05 40.6807 124.05 38.874C124.05 37.0837 124.668 35.5456 125.905 34.2598C127.142 32.974 128.908 31.9974 131.203 31.3301C133.498 30.6465 136.192 30.3047 139.284 30.3047ZM139.284 35.1875C137.364 35.1875 135.728 35.3258 134.377 35.6025C133.042 35.863 132.033 36.278 131.35 36.8477C130.666 37.401 130.324 38.0765 130.324 38.874C130.324 39.7041 130.666 40.3958 131.35 40.9492C132.033 41.5026 133.034 41.9176 134.353 42.1943C135.687 42.4548 137.331 42.5931 139.284 42.6094C141.254 42.5931 142.889 42.4548 144.191 42.1943C145.493 41.9176 146.478 41.5026 147.146 40.9492C147.813 40.3958 148.146 39.7041 148.146 38.874C148.146 38.0602 147.805 37.3766 147.121 36.8232C146.454 36.2699 145.461 35.863 144.143 35.6025C142.824 35.3258 141.205 35.1875 139.284 35.1875ZM174.074 6.15918C176.288 6.15918 178.265 6.81022 180.007 8.1123C181.748 9.41439 183.107 11.2617 184.084 13.6543C185.077 16.0469 185.573 18.8301 185.573 22.0039C185.573 25.194 185.077 27.9854 184.084 30.3779C183.107 32.7705 181.748 34.6178 180.007 35.9199C178.265 37.2057 176.288 37.8486 174.074 37.8486C171.844 37.8486 169.851 37.2057 168.093 35.9199C166.351 34.6341 164.984 32.7949 163.991 30.4023C162.998 27.9935 162.502 25.194 162.502 22.0039C162.502 18.8301 162.998 16.0469 163.991 13.6543C164.984 11.2617 166.351 9.41439 168.093 8.1123C169.851 6.81022 171.844 6.15918 174.074 6.15918ZM174.074 11.7988C172.967 11.7826 171.983 12.1732 171.12 12.9707C170.274 13.7682 169.623 14.932 169.167 16.4619C168.728 17.9919 168.508 19.8392 168.508 22.0039C168.508 24.1686 168.728 26.016 169.167 27.5459C169.623 29.0758 170.274 30.2396 171.12 31.0371C171.983 31.8184 172.967 32.209 174.074 32.209C175.197 32.209 176.182 31.8184 177.028 31.0371C177.875 30.2396 178.526 29.0758 178.981 27.5459C179.437 26.016 179.665 24.1686 179.665 22.0039C179.665 19.8229 179.429 17.9674 178.957 16.4375C178.501 14.9076 177.858 13.752 177.028 12.9707C176.198 12.1732 175.214 11.7826 174.074 11.7988ZM199.318 47.6143H193.142V3.00977H199.318V47.6143ZM195.803 24.1035H183.718V19.0986H195.803V24.1035ZM234.816 45.4902H229.128V3.7666H234.816V45.4902ZM240.407 25.373H232.473V20.3193H240.407V25.373ZM207.79 31.5742C209.076 31.5905 210.305 31.5498 211.477 31.4521C212.648 31.3382 213.918 31.1348 215.285 30.8418L215.749 35.9932C214.235 36.2861 212.868 36.4814 211.647 36.5791C210.443 36.6768 209.157 36.7174 207.79 36.7012H205.764V31.5742H207.79ZM215.31 13.3613H211.452V34.3818H205.764V8.38086H215.31V13.3613ZM219.021 31.5742C220.632 31.5905 222.048 31.5498 223.269 31.4521C224.506 31.3545 225.856 31.1266 227.321 30.7686L227.688 35.9443C226.174 36.2861 224.774 36.5059 223.488 36.6035C222.202 36.6849 220.713 36.7174 219.021 36.7012H217.019V31.5742H219.021ZM226.76 13.3613H222.585V34.3574H217.019V8.38086H226.76V13.3613ZM244.069 47.4922H238.21V3.00977H244.069V47.4922Z" fill="black"/>
<path d="M50.3477 109.48H47.3828V98.8047H50.3477V109.48ZM48.4961 105.508H42.9883V103.094H48.4961V105.508ZM38.3359 99.4258C39.4062 99.4258 40.3672 99.6367 41.2188 100.059C42.0703 100.473 42.7422 101.047 43.2344 101.781C43.7344 102.516 43.9844 103.352 43.9844 104.289C43.9844 105.242 43.7344 106.094 43.2344 106.844C42.7422 107.594 42.0703 108.18 41.2188 108.602C40.3672 109.023 39.4062 109.234 38.3359 109.234C37.2578 109.234 36.2852 109.023 35.418 108.602C34.5586 108.18 33.8828 107.594 33.3906 106.844C32.8984 106.094 32.6523 105.242 32.6523 104.289C32.6523 103.352 32.8984 102.516 33.3906 101.781C33.8828 101.047 34.5586 100.473 35.418 100.059C36.2852 99.6367 37.2578 99.4258 38.3359 99.4258ZM38.3359 101.84C37.7812 101.832 37.2891 101.93 36.8594 102.133C36.4297 102.336 36.0938 102.625 35.8516 103C35.6094 103.367 35.4883 103.797 35.4883 104.289C35.4883 104.805 35.6094 105.254 35.8516 105.637C36.0938 106.02 36.4297 106.312 36.8594 106.516C37.2891 106.719 37.7812 106.82 38.3359 106.82C38.8828 106.82 39.3633 106.719 39.7773 106.516C40.1992 106.305 40.5273 106.012 40.7617 105.637C41.0039 105.254 41.125 104.805 41.125 104.289C41.125 103.797 41.0039 103.367 40.7617 103C40.5273 102.625 40.1992 102.336 39.7773 102.133C39.3633 101.93 38.8828 101.832 38.3359 101.84ZM50.3477 116.195H39.1914V118.797H36.1797V113.992H47.3828V112.727H36.1562V110.418H50.3477V116.195ZM50.9805 119.922H36.1797V117.566H50.9805V119.922ZM69.1562 102.004H55.5156V99.6484H69.1562V102.004ZM72.6367 108.496H53.1367V106.199H72.6367V108.496ZM64.3164 111.59H61.375V107.359H64.3164V111.59ZM70.3281 101.102C70.3281 102.18 70.2969 103.168 70.2344 104.066C70.1719 104.965 70.0156 105.949 69.7656 107.02L66.8125 106.762C67.0391 105.738 67.1836 104.824 67.2461 104.02C67.3086 103.207 67.3438 102.309 67.3516 101.324V101.102V99.6484H70.3281V101.102ZM70.2461 116.23H58.3281V118.586H55.3398V114.203H67.2812V112.844H55.3281V110.523H70.2461V116.23ZM70.8086 119.992H55.3398V117.684H70.8086V119.992ZM86.043 109.105H82.4805V106.715H86.043V109.105ZM92.3594 120.156H89.4883V98.8047H92.3594V120.156ZM87.918 119.172H85.0938V99.1328H87.918V119.172ZM78.6953 100.34C79.6406 100.34 80.4688 100.652 81.1797 101.277C81.8906 101.895 82.4375 102.785 82.8203 103.949C83.2109 105.113 83.4062 106.484 83.4062 108.062C83.4062 109.633 83.2109 111.004 82.8203 112.176C82.4375 113.34 81.8906 114.238 81.1797 114.871C80.4688 115.496 79.6406 115.812 78.6953 115.82C77.7578 115.812 76.9375 115.496 76.2344 114.871C75.5312 114.238 74.9883 113.34 74.6055 112.176C74.2305 111.004 74.043 109.633 74.043 108.062C74.043 106.477 74.2305 105.105 74.6055 103.949C74.9883 102.785 75.5312 101.895 76.2344 101.277C76.9453 100.652 77.7656 100.34 78.6953 100.34ZM78.6953 103.176C78.2891 103.168 77.9453 103.348 77.6641 103.715C77.3828 104.082 77.168 104.629 77.0195 105.355C76.8789 106.082 76.8086 106.984 76.8086 108.062C76.8086 109.133 76.8789 110.035 77.0195 110.77C77.168 111.504 77.3828 112.051 77.6641 112.41C77.9531 112.77 78.2969 112.949 78.6953 112.949C79.1094 112.949 79.4609 112.77 79.75 112.41C80.0391 112.051 80.2617 111.504 80.418 110.77C80.5742 110.035 80.6523 109.133 80.6523 108.062C80.6523 106.984 80.5742 106.082 80.418 105.355C80.2617 104.629 80.0391 104.082 79.75 103.715C79.4609 103.348 79.1094 103.168 78.6953 103.176ZM106.398 102.812C106.398 104.078 106.23 105.273 105.895 106.398C105.559 107.516 105.031 108.516 104.312 109.398C103.602 110.281 102.699 110.961 101.605 111.438L100.07 109.211C100.992 108.812 101.754 108.273 102.355 107.594C102.965 106.914 103.41 106.164 103.691 105.344C103.98 104.523 104.125 103.68 104.125 102.812V100.363H106.398V102.812ZM107.125 102.812C107.125 103.688 107.262 104.539 107.535 105.367C107.816 106.195 108.258 106.961 108.859 107.664C109.461 108.367 110.238 108.922 111.191 109.328L109.891 111.73C108.711 111.254 107.742 110.551 106.984 109.621C106.234 108.691 105.688 107.641 105.344 106.469C105.008 105.297 104.84 104.078 104.84 102.812V100.363H107.125V102.812ZM114.918 102.812C114.918 104.094 114.746 105.316 114.402 106.48C114.066 107.645 113.523 108.691 112.773 109.621C112.031 110.551 111.07 111.254 109.891 111.73L108.602 109.328C109.539 108.922 110.312 108.371 110.922 107.676C111.539 106.98 111.984 106.215 112.258 105.379C112.531 104.535 112.668 103.68 112.668 102.812V100.363H114.918V102.812ZM115.691 102.812C115.691 103.727 115.824 104.59 116.09 105.402C116.363 106.215 116.801 106.957 117.402 107.629C118.012 108.293 118.789 108.82 119.734 109.211L118.141 111.438C117.047 110.961 116.145 110.289 115.434 109.422C114.723 108.555 114.203 107.559 113.875 106.434C113.547 105.309 113.383 104.102 113.383 102.812V100.363H115.691V102.812ZM119.629 117.508H100.176V115.082H119.629V117.508ZM138.754 114.18H135.766V98.8516H138.754V114.18ZM139.34 119.793H124.469V117.379H139.34V119.793ZM127.492 118.363H124.469V112.645H127.492V118.363ZM127.07 100.199C128.156 100.199 129.145 100.43 130.035 100.891C130.934 101.344 131.637 101.984 132.145 102.812C132.652 103.633 132.906 104.551 132.906 105.566C132.906 106.613 132.652 107.547 132.145 108.367C131.637 109.188 130.934 109.832 130.035 110.301C129.145 110.762 128.156 110.992 127.07 110.992C125.984 110.992 124.996 110.762 124.105 110.301C123.223 109.832 122.523 109.188 122.008 108.367C121.492 107.547 121.234 106.613 121.234 105.566C121.234 104.551 121.492 103.633 122.008 102.812C122.523 101.984 123.223 101.344 124.105 100.891C124.996 100.43 125.984 100.199 127.07 100.199ZM127.07 102.801C126.516 102.793 126.016 102.902 125.57 103.129C125.133 103.348 124.785 103.668 124.527 104.09C124.277 104.512 124.152 105.004 124.152 105.566C124.152 106.145 124.277 106.648 124.527 107.078C124.785 107.5 125.133 107.824 125.57 108.051C126.016 108.27 126.516 108.379 127.07 108.379C127.617 108.379 128.105 108.27 128.535 108.051C128.973 107.824 129.316 107.5 129.566 107.078C129.816 106.648 129.941 106.145 129.941 105.566C129.941 105.004 129.816 104.512 129.566 104.09C129.316 103.668 128.973 103.348 128.535 103.129C128.105 102.902 127.617 102.793 127.07 102.801ZM164.16 111.18H161.137V98.8047H164.16V111.18ZM167.008 106.328H163.281V103.891H167.008V106.328ZM157.129 111.543C158.59 111.543 159.859 111.715 160.938 112.059C162.023 112.395 162.859 112.887 163.445 113.535C164.031 114.176 164.324 114.941 164.324 115.832C164.324 116.73 164.031 117.504 163.445 118.152C162.859 118.809 162.027 119.305 160.949 119.641C159.871 119.984 158.598 120.156 157.129 120.156C155.645 120.156 154.352 119.984 153.25 119.641C152.156 119.305 151.309 118.809 150.707 118.152C150.113 117.504 149.816 116.73 149.816 115.832C149.816 114.941 150.113 114.176 150.707 113.535C151.309 112.887 152.16 112.395 153.262 112.059C154.363 111.715 155.652 111.543 157.129 111.543ZM157.129 113.922C156.207 113.914 155.418 113.98 154.762 114.121C154.105 114.262 153.609 114.477 153.273 114.766C152.945 115.055 152.781 115.41 152.781 115.832C152.781 116.246 152.949 116.602 153.285 116.898C153.621 117.195 154.113 117.418 154.762 117.566C155.418 117.715 156.207 117.789 157.129 117.789C158.035 117.789 158.809 117.715 159.449 117.566C160.098 117.418 160.59 117.195 160.926 116.898C161.262 116.602 161.43 116.246 161.43 115.832C161.43 115.41 161.262 115.055 160.926 114.766C160.59 114.477 160.098 114.262 159.449 114.121C158.809 113.98 158.035 113.914 157.129 113.922ZM149.734 107.617C152.234 107.609 154.164 107.566 155.523 107.488C156.891 107.402 158.195 107.227 159.438 106.961L159.707 109.352C158.457 109.617 157.129 109.797 155.723 109.891C154.316 109.977 152.32 110.02 149.734 110.02H147.953V107.617H149.734ZM157.551 102.66H150.918V109.27H147.953V100.258H157.551V102.66ZM185.793 114.426H182.805V98.8516H185.793V114.426ZM186.379 119.793H171.508V117.379H186.379V119.793ZM174.531 118.656H171.508V112.902H174.531V118.656ZM175.504 102.074C175.504 103.512 175.273 104.855 174.812 106.105C174.359 107.355 173.676 108.453 172.762 109.398C171.855 110.344 170.738 111.047 169.41 111.508L167.863 109.152C169.02 108.77 169.984 108.211 170.758 107.477C171.531 106.734 172.102 105.898 172.469 104.969C172.836 104.039 173.02 103.074 173.02 102.074V100.023H175.504V102.074ZM176.125 102.074C176.125 103.043 176.301 103.969 176.652 104.852C177.004 105.727 177.555 106.508 178.305 107.195C179.062 107.883 180 108.41 181.117 108.777L179.594 111.145C178.273 110.699 177.168 110.035 176.277 109.152C175.395 108.262 174.73 107.215 174.285 106.012C173.84 104.801 173.617 103.488 173.617 102.074V100.023H176.125V102.074ZM195.602 100.246C196.719 100.246 197.727 100.473 198.625 100.926C199.523 101.371 200.227 101.992 200.734 102.789C201.25 103.578 201.508 104.477 201.508 105.484C201.508 106.492 201.25 107.395 200.734 108.191C200.227 108.98 199.523 109.602 198.625 110.055C197.734 110.5 196.727 110.723 195.602 110.723C194.492 110.723 193.484 110.5 192.578 110.055C191.672 109.602 190.961 108.98 190.445 108.191C189.93 107.395 189.672 106.492 189.672 105.484C189.672 104.477 189.93 103.578 190.445 102.789C190.961 101.992 191.672 101.371 192.578 100.926C193.484 100.473 194.492 100.246 195.602 100.246ZM195.602 102.824C195.031 102.824 194.523 102.93 194.078 103.141C193.633 103.352 193.281 103.66 193.023 104.066C192.766 104.465 192.637 104.938 192.637 105.484C192.637 106.039 192.766 106.516 193.023 106.914C193.281 107.305 193.633 107.609 194.078 107.828C194.523 108.039 195.031 108.145 195.602 108.145C196.172 108.145 196.684 108.039 197.137 107.828C197.598 107.609 197.953 107.305 198.203 106.914C198.461 106.516 198.59 106.039 198.59 105.484C198.59 104.938 198.461 104.465 198.203 104.066C197.953 103.66 197.598 103.352 197.137 103.141C196.684 102.93 196.172 102.824 195.602 102.824ZM206.605 120.215H203.641V98.8047H206.605V120.215ZM189.109 113.418C191.664 113.41 194.031 113.359 196.211 113.266C198.391 113.172 200.465 112.996 202.434 112.738L202.645 114.883C201.199 115.164 199.691 115.375 198.121 115.516C196.551 115.656 195.074 115.746 193.691 115.785C192.316 115.824 190.797 115.844 189.133 115.844L188.781 113.418H189.109ZM232.844 120.215H229.809V98.8047H232.844V120.215ZM221.254 100.316C222.324 100.316 223.285 100.629 224.137 101.254C224.996 101.879 225.664 102.766 226.141 103.914C226.625 105.062 226.867 106.398 226.867 107.922C226.867 109.453 226.625 110.793 226.141 111.941C225.664 113.09 224.996 113.977 224.137 114.602C223.285 115.219 222.324 115.527 221.254 115.527C220.168 115.527 219.195 115.219 218.336 114.602C217.484 113.977 216.816 113.09 216.332 111.941C215.848 110.793 215.605 109.453 215.605 107.922C215.605 106.398 215.848 105.062 216.332 103.914C216.816 102.766 217.484 101.879 218.336 101.254C219.195 100.629 220.168 100.316 221.254 100.316ZM221.254 103.023C220.707 103.016 220.223 103.203 219.801 103.586C219.387 103.961 219.066 104.52 218.84 105.262C218.621 105.996 218.512 106.883 218.512 107.922C218.512 108.961 218.621 109.848 218.84 110.582C219.066 111.316 219.387 111.875 219.801 112.258C220.223 112.633 220.707 112.82 221.254 112.82C221.793 112.82 222.27 112.633 222.684 112.258C223.098 111.875 223.418 111.316 223.645 110.582C223.871 109.848 223.984 108.961 223.984 107.922C223.984 106.883 223.871 105.996 223.645 105.262C223.418 104.52 223.098 103.961 222.684 103.586C222.277 103.203 221.801 103.016 221.254 103.023ZM241.48 100.316C242.559 100.316 243.52 100.629 244.363 101.254C245.215 101.879 245.883 102.766 246.367 103.914C246.859 105.062 247.105 106.398 247.105 107.922C247.105 109.453 246.859 110.793 246.367 111.941C245.883 113.09 245.215 113.977 244.363 114.602C243.52 115.219 242.559 115.527 241.48 115.527C240.395 115.527 239.422 115.219 238.562 114.602C237.711 113.977 237.043 113.09 236.559 111.941C236.082 110.793 235.844 109.453 235.844 107.922C235.844 106.398 236.082 105.062 236.559 103.914C237.043 102.766 237.711 101.879 238.562 101.254C239.422 100.629 240.395 100.316 241.48 100.316ZM241.48 103.023C240.934 103.016 240.449 103.203 240.027 103.586C239.613 103.969 239.293 104.527 239.066 105.262C238.84 105.996 238.727 106.883 238.727 107.922C238.727 108.961 238.84 109.848 239.066 110.582C239.293 111.316 239.617 111.875 240.039 112.258C240.461 112.633 240.941 112.82 241.48 112.82C242.035 112.82 242.52 112.633 242.934 112.258C243.348 111.875 243.664 111.316 243.883 110.582C244.109 109.848 244.223 108.961 244.223 107.922C244.223 106.875 244.109 105.984 243.883 105.25C243.664 104.516 243.348 103.961 242.934 103.586C242.52 103.203 242.035 103.016 241.48 103.023ZM255.566 106.281H251.746V103.785H255.566V106.281ZM255.566 112.504H251.746V110.078H255.566V112.504ZM252.555 120.156H249.555V98.8047H252.555V120.156ZM274.398 120.156H271.363V98.8047H274.398V120.156ZM268.012 101.055C268.012 103.344 267.703 105.422 267.086 107.289C266.477 109.148 265.441 110.859 263.98 112.422C262.52 113.977 260.562 115.336 258.109 116.5L256.539 114.109C258.594 113.141 260.242 112.051 261.484 110.84C262.727 109.629 263.629 108.27 264.191 106.762C264.754 105.254 265.035 103.527 265.035 101.582V101.055H268.012ZM266.406 103.41H257.676V101.055H266.406V103.41ZM279.684 122.945H277.199L278.359 116.277H281.711L279.684 122.945ZM74.7109 131.812H65.5V129.375H74.7109V131.812ZM71.1719 139.664H68.1953V134.297H71.1719V139.664ZM76.4805 131.004C76.4648 132.098 76.4258 133.094 76.3633 133.992C76.3086 134.891 76.1875 135.879 76 136.957L73.0469 136.699C73.2578 135.574 73.3945 134.582 73.457 133.723C73.5195 132.863 73.5547 131.938 73.5625 130.945V130.699V129.375H76.4805V130.699V131.004ZM81.6953 143.777H78.625V127.805H81.6953V143.777ZM84.2852 136.828H80.4883V134.332H84.2852V136.828ZM82.3633 148.793H67.375V146.379H82.3633V148.793ZM70.375 147.141H67.375V142.359H70.375V147.141ZM64.2344 138.516C66.8672 138.508 69.2539 138.461 71.3945 138.375C73.5352 138.289 75.5664 138.109 77.4883 137.836L77.6289 139.992C75.668 140.352 73.5977 140.594 71.418 140.719C69.2383 140.836 66.9297 140.895 64.4922 140.895L64.2344 138.516ZM92.4648 130.887C92.4648 132.332 92.2461 133.676 91.8086 134.918C91.3789 136.16 90.7227 137.242 89.8398 138.164C88.957 139.078 87.8633 139.762 86.5586 140.215L84.9531 137.871C86.0938 137.48 87.043 136.93 87.8008 136.219C88.5586 135.5 89.1172 134.684 89.4766 133.77C89.8438 132.855 90.0273 131.895 90.0273 130.887V128.953H92.4648V130.887ZM93.0273 131.18C93.0273 132.07 93.2031 132.918 93.5547 133.723C93.9141 134.52 94.457 135.23 95.1836 135.855C95.918 136.473 96.8281 136.953 97.9141 137.297L96.3203 139.617C95.0781 139.195 94.0273 138.57 93.168 137.742C92.3086 136.914 91.668 135.941 91.2461 134.824C90.8242 133.699 90.6133 132.484 90.6133 131.18V128.953H93.0273V131.18ZM102.18 140.473H99.1914V127.805H102.18V140.473ZM105.062 135.305H101.336V132.809H105.062V135.305ZM95.1836 140.906C96.6523 140.906 97.9258 141.07 99.0039 141.398C100.09 141.719 100.922 142.188 101.5 142.805C102.086 143.422 102.379 144.16 102.379 145.02C102.379 145.887 102.086 146.629 101.5 147.246C100.922 147.871 100.094 148.344 99.0156 148.664C97.9375 148.992 96.6602 149.156 95.1836 149.156C93.6992 149.156 92.4062 148.992 91.3047 148.664C90.2031 148.344 89.3555 147.871 88.7617 147.246C88.168 146.629 87.8711 145.887 87.8711 145.02C87.8711 144.16 88.168 143.422 88.7617 142.805C89.3555 142.188 90.2031 141.719 91.3047 141.398C92.4062 141.07 93.6992 140.906 95.1836 140.906ZM95.1836 143.25C94.2617 143.25 93.4766 143.316 92.8281 143.449C92.1875 143.574 91.7031 143.773 91.375 144.047C91.0469 144.312 90.8828 144.637 90.8828 145.02C90.8828 145.418 91.0469 145.75 91.375 146.016C91.7031 146.281 92.1836 146.48 92.8164 146.613C93.457 146.738 94.2461 146.805 95.1836 146.812C96.1289 146.805 96.9141 146.738 97.5391 146.613C98.1641 146.48 98.6367 146.281 98.957 146.016C99.2773 145.75 99.4375 145.418 99.4375 145.02C99.4375 144.629 99.2734 144.301 98.9453 144.035C98.625 143.77 98.1484 143.574 97.5156 143.449C96.8828 143.316 96.1055 143.25 95.1836 143.25ZM115.727 128.918C117.234 128.918 118.598 129.176 119.816 129.691C121.035 130.199 121.996 130.918 122.699 131.848C123.402 132.777 123.754 133.844 123.754 135.047C123.754 136.25 123.402 137.32 122.699 138.258C121.996 139.195 121.035 139.918 119.816 140.426C118.598 140.934 117.234 141.188 115.727 141.188C114.227 141.188 112.867 140.934 111.648 140.426C110.43 139.918 109.469 139.195 108.766 138.258C108.062 137.32 107.711 136.25 107.711 135.047C107.711 133.844 108.062 132.777 108.766 131.848C109.469 130.91 110.43 130.188 111.648 129.68C112.867 129.172 114.227 128.918 115.727 128.918ZM115.727 131.332C114.742 131.324 113.863 131.473 113.09 131.777C112.316 132.082 111.711 132.516 111.273 133.078C110.844 133.641 110.629 134.297 110.629 135.047C110.629 135.805 110.844 136.465 111.273 137.027C111.711 137.582 112.316 138.008 113.09 138.305C113.863 138.602 114.742 138.75 115.727 138.75C116.711 138.75 117.586 138.602 118.352 138.305C119.117 138.008 119.715 137.582 120.145 137.027C120.582 136.465 120.801 135.805 120.801 135.047C120.801 134.297 120.582 133.641 120.145 133.078C119.715 132.516 119.117 132.082 118.352 131.777C117.586 131.473 116.711 131.324 115.727 131.332ZM125.512 146.566H106.012V144.152H125.512V146.566ZM146.254 146.789H126.754V144.34H146.254V146.789ZM137.934 145.359H134.992V140.297H137.934V145.359ZM144.004 136.277H131.98V139.922H129.004V133.934H141.051V131.613H128.969V129.211H144.004V136.277ZM144.508 141.105H129.004V138.68H144.508V141.105ZM171.016 139.02H168.039V127.805H171.016V139.02ZM164.945 131.391H153.578V129.012H164.945V131.391ZM153.027 136.359C153.535 136.359 154.039 136.359 154.539 136.359C156.875 136.344 158.879 136.312 160.551 136.266C162.23 136.211 163.801 136.121 165.262 135.996L165.391 138.152C163.617 138.395 161.715 138.562 159.684 138.656C157.652 138.75 155.527 138.797 153.309 138.797L153.027 136.359ZM158.195 137.555H155.301V130.477H158.195V137.555ZM163.188 137.555H160.328V130.477H163.188V137.555ZM169.797 132.727H165.461V130.395H169.797V132.727ZM169.797 136.57H165.461V134.215H169.797V136.57ZM171.016 145.418H159.812V148.16H156.871V143.273H168.051V142.137H156.836V139.84H171.016V145.418ZM171.625 149.004H156.871V146.707H171.625V149.004ZM191.77 149.215H188.805V127.805H191.77V149.215ZM190.633 136.688H185.125V134.238H190.633V136.688ZM190.633 141.082H185.125V138.656H190.633V141.082ZM181.129 134.52C181.129 136.043 180.906 137.516 180.461 138.938C180.016 140.359 179.352 141.621 178.469 142.723C177.586 143.816 176.52 144.637 175.27 145.184L173.676 142.875C174.785 142.375 175.723 141.68 176.488 140.789C177.254 139.891 177.828 138.898 178.211 137.812C178.594 136.719 178.785 135.621 178.785 134.52V133.301H181.129V134.52ZM181.773 134.52C181.773 135.582 181.965 136.637 182.348 137.684C182.738 138.73 183.324 139.691 184.105 140.566C184.895 141.434 185.844 142.113 186.953 142.605L185.312 144.891C184.055 144.344 182.98 143.539 182.09 142.477C181.207 141.406 180.543 140.18 180.098 138.797C179.652 137.414 179.43 135.988 179.43 134.52V133.301H181.773V134.52ZM186.109 133.688H174.379V131.309H186.109V133.688ZM181.797 132.551H178.809V128.297H181.797V132.551ZM214.035 146.672H194.535V144.258H214.035V146.672ZM205.715 144.855H202.773V139.629H205.715V144.855ZM199.598 132.504H208.891V129.176H211.867V140.297H196.598V129.176H199.598V132.504ZM208.891 137.906V134.871H199.598V137.906H208.891ZM227.371 137.473H223.738V135.023H227.371V137.473ZM221.5 133.336C221.5 135 221.328 136.582 220.984 138.082C220.648 139.582 220.121 140.922 219.402 142.102C218.691 143.281 217.789 144.207 216.695 144.879L214.867 142.652C215.875 142.027 216.703 141.223 217.352 140.238C218 139.246 218.469 138.168 218.758 137.004C219.055 135.84 219.203 134.617 219.203 133.336V129.656H221.5V133.336ZM222.098 133.195C222.098 134.453 222.223 135.633 222.473 136.734C222.723 137.828 223.137 138.844 223.715 139.781C224.301 140.719 225.055 141.488 225.977 142.09L224.359 144.387C223.273 143.73 222.398 142.824 221.734 141.668C221.07 140.512 220.59 139.227 220.293 137.812C220.004 136.398 219.859 134.859 219.859 133.195V129.656H222.098V133.195ZM233.758 149.156H230.887V127.805H233.758V149.156ZM229.293 148.172H226.492V128.133H229.293V148.172ZM243.332 144.668H240.367V138.68H243.332V144.668ZM251.184 144.668H248.172V138.68H251.184V144.668ZM255.52 146.66H236.02V144.211H255.52V146.66ZM245.734 128.859C247.273 128.859 248.648 129.098 249.859 129.574C251.078 130.051 252.031 130.723 252.719 131.59C253.414 132.457 253.762 133.453 253.762 134.578C253.762 135.711 253.418 136.711 252.73 137.578C252.043 138.438 251.09 139.105 249.871 139.582C248.66 140.051 247.281 140.289 245.734 140.297C244.195 140.289 242.816 140.051 241.598 139.582C240.387 139.105 239.438 138.438 238.75 137.578C238.062 136.711 237.719 135.711 237.719 134.578C237.719 133.453 238.062 132.457 238.75 131.59C239.438 130.723 240.391 130.051 241.609 129.574C242.828 129.098 244.203 128.859 245.734 128.859ZM245.734 131.227C244.719 131.219 243.832 131.348 243.074 131.613C242.316 131.879 241.727 132.266 241.305 132.773C240.883 133.273 240.672 133.875 240.672 134.578C240.672 135.273 240.883 135.879 241.305 136.395C241.727 136.902 242.316 137.297 243.074 137.578C243.84 137.852 244.727 137.988 245.734 137.988C246.734 137.988 247.617 137.852 248.383 137.578C249.148 137.297 249.742 136.902 250.164 136.395C250.594 135.879 250.809 135.273 250.809 134.578C250.809 133.875 250.598 133.273 250.176 132.773C249.754 132.273 249.16 131.891 248.395 131.625C247.637 131.352 246.75 131.219 245.734 131.227Z" fill="black"/>
<path d="M126.161 213C107.931 213 91.6369 227.436 82.4237 242.407C79.2697 247.533 79.431 255.81 77.6887 261.472C76.6957 264.699 74.6354 267.17 73.2028 270.195C72.4297 271.827 68.6352 274.924 69.0285 276.3C69.1785 276.825 75.797 274.68 76.8787 274.68C81.0586 274.68 84.6055 274.786 88.5918 273.559C95.6723 271.38 100.217 264.792 105.974 260.351C112.616 255.227 115.464 249.7 118.061 241.909C120.225 235.416 124.273 228.859 126.098 222.47C128.017 215.756 128.214 213.809 135.756 215.181C143.449 216.579 149.918 218.068 156.503 222.595C164.667 228.208 168.81 238.124 177.187 243.279C185.121 248.162 193.449 254.981 193.449 264.587C193.449 268.131 177.843 265.709 174.384 265.709C165.411 265.709 154.234 260.359 147.531 254.494C142.381 249.988 137.894 244.447 135.132 238.233C132.591 232.514 130.76 226.067 127.282 220.85" stroke="black" stroke-width="5" stroke-linecap="round"/>
<path d="M79.0593 279.166C79.0593 295.095 79.0337 314.674 90.3363 327.389C103.134 341.786 128.413 346.886 146.721 342.467C163.94 338.31 177.166 324.287 181.985 307.203C184.211 299.311 183.355 290.649 183.355 282.531C183.355 280.249 184.606 270.259 182.234 269.073" stroke="black" stroke-width="5" stroke-linecap="round"/>
<path d="M107.096 278.045C107.096 280.038 107.407 280.911 108.217 282.531" stroke="black" stroke-width="5" stroke-linecap="round"/>
<path d="M134.011 276.923V281.409" stroke="black" stroke-width="5" stroke-linecap="round"/>
<path d="M112.703 309.446C112.703 312.971 116.201 318.418 119.993 318.418C126.093 318.418 126.161 315.17 126.161 309.446" stroke="black" stroke-width="5" stroke-linecap="round"/>
<path d="M198.144 180C198.144 184.539 195.954 189.287 194.157 193.395C193.356 195.226 191.372 197.322 190.044 198.816C189.641 199.269 192.085 197.943 193.16 197.943C197.83 197.943 201.148 197.88 204.25 201.869C205.26 203.168 209.359 211.425 209.359 207.476C209.359 204.298 209.359 201.121 209.359 197.943C209.359 195.448 212.963 187.496 212.723 187.601C209.609 188.964 205.239 187.861 202.63 186.48C199.493 184.819 199.669 181.323 197.022 180" stroke="black" stroke-width="5" stroke-linecap="round"/>
<path d="M232.909 200.186C232.909 206.905 236.531 216.245 233.159 222.616C232.375 224.095 236.483 222.525 239.638 222.616C241.802 222.677 248.61 226.838 248.61 225.731C248.61 222.517 247.469 217.31 249.731 214.765C252.058 212.148 252.274 211.401 248.61 211.401C245.259 211.401 241.135 211.631 238.517 209.158C236.873 207.606 235.642 204.356 234.031 203.551" stroke="black" stroke-width="5" stroke-linecap="round"/>
</svg>
