<svg width="114" height="124" viewBox="0 0 114 124" fill="none" xmlns="http://www.w3.org/2000/svg">
<path d="M58.7527 119.57C53.9917 119.57 49.2307 119.57 44.4697 119.57C36.3548 119.57 31.0012 117.403 23.9955 113.705C4.91063 103.633 3.03255 77.9296 3.03255 59.0711C3.03255 40.534 17.3207 20.0716 33.3365 11.0627C40.7402 6.89816 50.6002 3.36331 59.1872 3.24237C66.7623 3.13568 74.6592 1.68521 80.476 7.36979C94.5487 21.1227 104.024 36.2827 109.585 55.0523C114.667 72.2035 103.424 92.5618 90.6316 103.387C87.0463 106.42 82.0731 106.342 78.3036 109.035C74.9579 111.424 71.0557 112.918 67.5506 115.171C61.5083 119.056 57.1368 120.548 49.9548 120.548" stroke="black" stroke-width="5" stroke-linecap="round"/>
<path d="M76.3747 48.6481C76.3747 51.6709 76.8769 56.0939 78.6055 58.6868" stroke="black" stroke-width="5" stroke-linecap="round"/>
<path d="M94.779 55.8983C98.0256 55.8983 100.654 58.4748 103.733 59.2445C105.081 59.5815 105.916 60.3599 107.327 60.3599C108.175 60.3599 109.632 60.0801 110.395 60.4839C113.341 62.0438 107.273 64.6782 106.429 65.1004C105.286 65.6717 96.6618 69.7027 96.4521 69.2832" stroke="black" stroke-width="5" stroke-linecap="round"/>
<path d="M85.298 86.0144C85.6612 89.2829 96.3246 94.7664 99.2407 95.4954" stroke="black" stroke-width="5" stroke-linecap="round"/>
<path d="M47.9316 67.0524C44.4039 67.0524 44.2893 67.6969 42.6334 70.6775C41.6641 72.4222 42.3546 76.1904 42.3546 78.2065C42.3546 80.432 44.4683 82.1105 46.5684 82.1105C47.3315 82.1105 49.6296 82.4977 50.1625 81.8316C50.9843 80.8043 51.6548 80.4374 52.951 80.4374" stroke="black" stroke-width="5" stroke-linecap="round"/>
</svg>
