<svg width="132" height="125" viewBox="0 0 132 125" fill="none" xmlns="http://www.w3.org/2000/svg">
<path d="M81.727 119.328C72.6849 119.328 62.0549 120.878 53.5953 117.156C41.1531 111.681 31.4267 100.914 24.0517 89.7844C16.6271 78.58 14.4086 66.2042 14.2762 52.9635C14.1731 42.6485 16.9627 36.3474 23.6172 28.3619C37.4541 11.7576 54.4353 3 76.1875 3C91.9425 3 101.626 10.1961 108.664 24.0716C117.175 40.8516 121.806 59.7324 121.806 78.4883C121.806 82.2496 122.896 88.2154 120.612 91.4137C116.15 97.6599 110.667 102.914 106.111 109.064C101.142 115.772 97.3965 118.272 90.0904 120.36C86.1781 121.478 79.2369 122.703 75.8617 119.328" stroke="black" stroke-width="5" stroke-linecap="round"/>
<path d="M49.292 47.8355C50.4093 47.9752 49.8497 53.3858 49.8497 54.528" stroke="black" stroke-width="5" stroke-linecap="round"/>
<path d="M68.8118 47.8355V56.2011" stroke="black" stroke-width="5" stroke-linecap="round"/>
<path d="M59.3307 64.5667C62.1379 64.5667 63.9436 67.2088 66.5809 67.3553C67.3251 67.3966 71.5573 69.0352 69.6173 70.1438C67.5297 71.3367 65.2073 72.517 63.0178 73.49C61.2924 74.2569 60.2003 75.7209 58.2153 75.7209" stroke="black" stroke-width="5" stroke-linecap="round"/>
<path d="M48.7343 89.6635C48.7343 94.9011 56.362 97.4714 61.0039 97.4714C64.8822 97.4714 68.7338 94.8388 70.4849 91.3367" stroke="black" stroke-width="5" stroke-linecap="round"/>
<path d="M8.02173 58.4319C2.73027 58.4319 3.00237 64.6047 3.00237 68.1918C3.00237 71.7018 12.4834 71.7442 12.4834 69.5861" stroke="black" stroke-width="5" stroke-linecap="round"/>
<path d="M9.69485 59.5474H11.368" stroke="black" stroke-width="5" stroke-linecap="round"/>
<path d="M119.563 56.7588C121.797 56.7588 125.067 56.1277 126.813 57.8742C128.27 59.331 128.937 63.1987 129.044 65.1244C129.127 66.617 129.837 71.0347 127.929 71.2592C126.369 71.4427 125.369 72.3746 123.467 72.3746" stroke="black" stroke-width="5" stroke-linecap="round"/>
</svg>
